<svg xmlns="http://www.w3.org/2000/svg" viewBox="0 0 64 64" role="img" aria-label="JavaScript">
  <rect width="50" height="50" x="7" y="7" fill="#f0c933" rx="8"/>
  <path fill="#fff" d="M19 44c1.2 1.9 3 3 5.5 3 3.4 0 5.5-1.8 5.5-5.9V22h-6v18.7c0 1.3-.5 1.9-1.5 1.9-.9 0-1.7-.5-2.4-1.6L19 44zm17.4-.4c1.4 2.2 3.9 3.4 7.2 3.4 4.8 0 7.4-2.5 7.4-6.2 0-3.9-2.3-5.3-6.5-7.1-2.5-1.1-3.3-1.6-3.3-2.8 0-.9.7-1.7 2.1-1.7 1.4 0 2.4.6 3.3 1.9l3.8-3.2c-1.7-2.5-4-3.7-7.1-3.7-4.5 0-7.1 2.8-7.1 6.5 0 4 2.5 5.5 6.4 7.1 2.5 1.1 3.4 1.6 3.4 2.9 0 1.1-.7 1.8-2.4 1.8-1.8 0-3.2-.7-4.1-2.2l-3.1 3.3z"/>
</svg>
